<?xml version="1.0" encoding="UTF-8"?>
<svg id="Illustration" xmlns="http://www.w3.org/2000/svg" xmlns:xlink="http://www.w3.org/1999/xlink" viewBox="0 0 3710 3710">
  <defs>
    <style>
      .cls-1 {
        fill: url(#Gradiente_sem_nome_498);
      }

      .cls-2 {
        fill: url(#linear-gradient-2);
      }

      .cls-3 {
        fill: url(#Gradiente_sem_nome_11-4);
      }

      .cls-4, .cls-5, .cls-6 {
        fill: #fff;
      }

      .cls-7 {
        fill: url(#Gradiente_sem_nome_11-2);
      }

      .cls-8 {
        fill: url(#Gradiente_sem_nome_18-6);
      }

      .cls-9 {
        fill: #f6f6f6;
      }

      .cls-10 {
        fill: url(#Gradiente_sem_nome_487);
      }

      .cls-11 {
        fill: url(#Gradiente_sem_nome_18-2);
      }

      .cls-12 {
        fill: url(#Gradiente_sem_nome_495);
      }

      .cls-13 {
        fill: url(#linear-gradient-6);
      }

      .cls-14 {
        fill: url(#Gradiente_sem_nome_18-14);
      }

      .cls-15 {
        fill: url(#Gradiente_sem_nome_18-10);
      }

      .cls-16 {
        fill: url(#Gradiente_sem_nome_18);
      }

      .cls-17 {
        fill: url(#linear-gradient-11);
      }

      .cls-18 {
        fill: url(#Gradiente_sem_nome_627);
      }

      .cls-19 {
        fill: url(#Gradiente_sem_nome_18-4);
      }

      .cls-20 {
        fill: url(#Gradiente_sem_nome_18-11);
      }

      .cls-21 {
        fill: url(#linear-gradient-10);
      }

      .cls-22 {
        fill: #91b3fa;
      }

      .cls-5 {
        opacity: .7;
      }

      .cls-23 {
        fill: url(#Gradiente_sem_nome_11-3);
      }

      .cls-24 {
        fill: url(#Gradiente_sem_nome_18-7);
      }

      .cls-25 {
        fill: url(#Gradiente_sem_nome_54);
      }

      .cls-26 {
        fill: url(#linear-gradient-5);
      }

      .cls-27 {
        fill: url(#Gradiente_sem_nome_18-5);
      }

      .cls-28 {
        fill: url(#Gradiente_sem_nome_11);
      }

      .cls-29 {
        fill: url(#linear-gradient-7);
      }

      .cls-30 {
        fill: url(#Gradiente_sem_nome_627-3);
      }

      .cls-31 {
        fill: url(#Gradiente_sem_nome_627-2);
      }

      .cls-32 {
        fill: url(#Gradiente_sem_nome_18-12);
      }

      .cls-33 {
        fill: url(#linear-gradient-9);
      }

      .cls-34 {
        fill: url(#Gradiente_sem_nome_18-13);
      }

      .cls-35 {
        fill: url(#linear-gradient-3);
      }

      .cls-36 {
        fill: url(#Gradiente_sem_nome_18-9);
      }

      .cls-37 {
        fill: url(#linear-gradient);
      }

      .cls-38 {
        fill: url(#Gradiente_sem_nome_18-3);
      }

      .cls-39 {
        fill: #bdd0fb;
      }

      .cls-40 {
        fill: url(#linear-gradient-4);
      }

      .cls-41 {
        fill: url(#Gradiente_sem_nome_18-8);
      }

      .cls-42 {
        fill: url(#linear-gradient-8);
      }

      .cls-6 {
        opacity: .65;
      }
    </style>
    <linearGradient id="Gradiente_sem_nome_495" data-name="Gradiente sem nome 495" x1="3622.18" y1="4064.77" x2="1115.73" y2="951.91" gradientUnits="userSpaceOnUse">
      <stop offset="0" stop-color="#f6f6f6"/>
      <stop offset="1" stop-color="#e6ebf1"/>
    </linearGradient>
    <linearGradient id="linear-gradient" x1="2076.47" y1="2406.67" x2="2566.57" y2="1358.4" gradientUnits="userSpaceOnUse">
      <stop offset="0" stop-color="#09005d"/>
      <stop offset="1" stop-color="#1a0f91"/>
    </linearGradient>
    <linearGradient id="Gradiente_sem_nome_18" data-name="Gradiente sem nome 18" x1="1863.94" y1="513.97" x2="1863.94" y2="1623.51" gradientUnits="userSpaceOnUse">
      <stop offset="0" stop-color="#031b3b"/>
      <stop offset="1" stop-color="#001664"/>
    </linearGradient>
    <linearGradient id="Gradiente_sem_nome_487" data-name="Gradiente sem nome 487" x1="535.73" y1="1648.45" x2="3175.09" y2="1648.45" gradientUnits="userSpaceOnUse">
      <stop offset="0" stop-color="#6486ff"/>
      <stop offset="1" stop-color="#0c6ff1"/>
    </linearGradient>
    <linearGradient id="linear-gradient-2" x1="2173.03" y1="4226.58" x2="2002.85" y2="3396.13" xlink:href="#linear-gradient"/>
    <linearGradient id="Gradiente_sem_nome_627" data-name="Gradiente sem nome 627" x1="1065" y1="134.14" x2="809.31" y2="1128.99" gradientTransform="translate(839.85 -388.46) rotate(45)" gradientUnits="userSpaceOnUse">
      <stop offset="0" stop-color="#dd3f42"/>
      <stop offset="1" stop-color="#e52c1e"/>
    </linearGradient>
    <linearGradient id="Gradiente_sem_nome_627-2" data-name="Gradiente sem nome 627" x1="1792.51" y1="-339.69" x2="1393.57" y2="142.6" gradientTransform="matrix(1, 0, 0, 1, 0, 0)" xlink:href="#Gradiente_sem_nome_627"/>
    <linearGradient id="Gradiente_sem_nome_627-3" data-name="Gradiente sem nome 627" x1="1883" y1="-264.84" x2="1484.06" y2="217.46" gradientTransform="matrix(1, 0, 0, 1, 0, 0)" xlink:href="#Gradiente_sem_nome_627"/>
    <radialGradient id="Gradiente_sem_nome_498" data-name="Gradiente sem nome 498" cx="1950.37" cy="1333.73" fx="1950.37" fy="1333.73" r="713.82" gradientUnits="userSpaceOnUse">
      <stop offset="0" stop-color="#6486ff"/>
      <stop offset=".17" stop-color="#4d6ddc"/>
      <stop offset=".44" stop-color="#2c47a8"/>
      <stop offset=".68" stop-color="#142c83"/>
      <stop offset=".88" stop-color="#051c6c"/>
      <stop offset="1" stop-color="#001664"/>
    </radialGradient>
    <linearGradient id="Gradiente_sem_nome_54" data-name="Gradiente sem nome 54" x1="2384.94" y1="898.98" x2="1104.51" y2="3864.5" gradientUnits="userSpaceOnUse">
      <stop offset="0" stop-color="#f8c078"/>
      <stop offset="1" stop-color="#f59854"/>
    </linearGradient>
    <linearGradient id="Gradiente_sem_nome_18-2" data-name="Gradiente sem nome 18" x1="1588.85" y1="1796.69" x2="2242.75" y2="206.68" xlink:href="#Gradiente_sem_nome_18"/>
    <linearGradient id="Gradiente_sem_nome_18-3" data-name="Gradiente sem nome 18" x1="1757.4" y1="1866.01" x2="2411.3" y2="276" xlink:href="#Gradiente_sem_nome_18"/>
    <linearGradient id="Gradiente_sem_nome_18-4" data-name="Gradiente sem nome 18" x1="1963.54" y1="1950.79" x2="2617.45" y2="360.77" xlink:href="#Gradiente_sem_nome_18"/>
    <linearGradient id="Gradiente_sem_nome_18-5" data-name="Gradiente sem nome 18" x1="1618.49" y1="1808.88" x2="2272.39" y2="218.87" xlink:href="#Gradiente_sem_nome_18"/>
    <linearGradient id="Gradiente_sem_nome_18-6" data-name="Gradiente sem nome 18" x1="1734.92" y1="1856.76" x2="2388.82" y2="266.75" xlink:href="#Gradiente_sem_nome_18"/>
    <linearGradient id="Gradiente_sem_nome_18-7" data-name="Gradiente sem nome 18" x1="1852.96" y1="1905.31" x2="2506.86" y2="315.29" xlink:href="#Gradiente_sem_nome_18"/>
    <linearGradient id="Gradiente_sem_nome_18-8" data-name="Gradiente sem nome 18" x1="1972.66" y1="1954.54" x2="2626.55" y2="364.55" xlink:href="#Gradiente_sem_nome_18"/>
    <linearGradient id="Gradiente_sem_nome_18-9" data-name="Gradiente sem nome 18" x1="2105.17" y1="2009.03" x2="2759.08" y2="419.01" xlink:href="#Gradiente_sem_nome_18"/>
    <linearGradient id="Gradiente_sem_nome_18-10" data-name="Gradiente sem nome 18" x1="3677.91" y1="3056.73" x2="2978.32" y2="3817.68" gradientTransform="translate(-2400.04)" xlink:href="#Gradiente_sem_nome_18"/>
    <linearGradient id="linear-gradient-3" x1="3450.83" y1="3113.25" x2="3512.97" y2="3113.25" gradientTransform="translate(-2400.04)" gradientUnits="userSpaceOnUse">
      <stop offset="0" stop-color="#febbba"/>
      <stop offset="1" stop-color="#ff928e"/>
    </linearGradient>
    <linearGradient id="Gradiente_sem_nome_18-11" data-name="Gradiente sem nome 18" x1="-229.04" y1="6898.68" x2="440.79" y2="6113.61" gradientTransform="translate(-2400.04)" xlink:href="#Gradiente_sem_nome_18"/>
    <linearGradient id="Gradiente_sem_nome_18-12" data-name="Gradiente sem nome 18" x1="3520.97" y1="2912.45" x2="2821.38" y2="3673.4" gradientTransform="translate(-2400.04)" xlink:href="#Gradiente_sem_nome_18"/>
    <linearGradient id="linear-gradient-4" x1="3226.88" y1="3110.06" x2="3280.53" y2="3110.06" xlink:href="#linear-gradient-3"/>
    <linearGradient id="Gradiente_sem_nome_18-13" data-name="Gradiente sem nome 18" x1="-322.95" y1="6818.56" x2="346.88" y2="6033.49" gradientTransform="translate(-2400.04)" xlink:href="#Gradiente_sem_nome_18"/>
    <linearGradient id="Gradiente_sem_nome_11" data-name="Gradiente sem nome 11" x1="1273.47" y1="1460.19" x2="1031.83" y2="2140.88" gradientUnits="userSpaceOnUse">
      <stop offset="0" stop-color="#063778"/>
      <stop offset="1" stop-color="#0c6ff1"/>
    </linearGradient>
    <linearGradient id="linear-gradient-5" x1="-12100.44" y1="6651.71" x2="-12797.35" y2="7543.35" gradientTransform="translate(-1476.91 -12321.45) rotate(-71.74)" xlink:href="#linear-gradient-3"/>
    <linearGradient id="linear-gradient-6" x1="-12005.56" y1="6725.86" x2="-12702.47" y2="7617.5" gradientTransform="translate(-1476.91 -12321.45) rotate(-71.74)" xlink:href="#linear-gradient-3"/>
    <linearGradient id="Gradiente_sem_nome_11-2" data-name="Gradiente sem nome 11" x1="1066.71" y1="1386.79" x2="825.06" y2="2067.48" xlink:href="#Gradiente_sem_nome_11"/>
    <linearGradient id="Gradiente_sem_nome_11-3" data-name="Gradiente sem nome 11" x1="784.98" y1="1286.77" x2="543.34" y2="1967.47" xlink:href="#Gradiente_sem_nome_11"/>
    <linearGradient id="linear-gradient-7" x1="-5326.46" y1="1221.53" x2="-5446.32" y2="1739.52" gradientTransform="translate(6481.61 1583.66) rotate(15.02)" xlink:href="#linear-gradient-3"/>
    <linearGradient id="linear-gradient-8" x1="-8554.14" y1="3160.13" x2="-8992.14" y2="3372.99" gradientTransform="translate(-8436.37 1126.71) rotate(160.92) scale(1 -1)" xlink:href="#linear-gradient-3"/>
    <linearGradient id="Gradiente_sem_nome_18-14" data-name="Gradiente sem nome 18" x1="-5779.38" y1="-2226.37" x2="-5538.02" y2="-2226.37" gradientTransform="translate(7014.73 279.36) rotate(-31.72)" xlink:href="#Gradiente_sem_nome_18"/>
    <linearGradient id="linear-gradient-9" x1="-8530.5" y1="3208.78" x2="-8968.49" y2="3421.64" gradientTransform="translate(-8436.37 1126.71) rotate(160.92) scale(1 -1)" xlink:href="#linear-gradient-3"/>
    <linearGradient id="linear-gradient-10" x1="-8986.49" y1="2245.36" x2="-8599.15" y2="2513.94" gradientTransform="translate(-8003.16 -1074.39) rotate(-179.4) scale(1 -1)" xlink:href="#linear-gradient-3"/>
    <linearGradient id="linear-gradient-11" x1="-8978.6" y1="2237.58" x2="-8575.66" y2="2516.98" gradientTransform="translate(-8003.16 -1074.39) rotate(-179.4) scale(1 -1)" xlink:href="#linear-gradient-3"/>
    <linearGradient id="Gradiente_sem_nome_11-4" data-name="Gradiente sem nome 11" x1="690.1" y1="1253.09" x2="448.45" y2="1933.79" xlink:href="#Gradiente_sem_nome_11"/>
  </defs>
  <path class="cls-12" d="M2940.38,2831.8c-58,60.32-112.87,99.21-156.23,129.95-509.64,361.25-1112.69,255.94-1240.85,230.23-189.26-37.97-555.09-111.38-819.58-418.64-400.15-464.87-337.84-1197.26-27.46-1680.72,56.77-88.43,356.67-579.26,966.21-657.97,368.89-47.64,798.89,48.44,1110.29,306.17,653.65,541,607.12,1633.9,167.62,2090.99Z"/>
  <g>
    <polygon class="cls-37" points="1641.23 2376.53 1580.49 2921.29 2285.2 2921.29 2193.41 2376.53 1641.23 2376.53"/>
    <g>
      <path class="cls-16" d="M457.45,1034.37v1247.63c0,102.63,81.79,186.57,184.39,189.21,455.7,11.75,2049.5,40.24,2483.29,33.85,74.56-1.1,134.96-60.76,137.11-135.3,8.36-289.84,21.95-986.81-28.32-1310.39-10.59-68.14-68.1-119.1-137.03-121.3-381.82-12.21-2071.35-51-2504.94-41.26-74.78,1.68-134.49,62.76-134.49,137.56Z"/>
      <path class="cls-10" d="M535.73,1028.3v1185.34c0,59.92,48.1,108.75,108.02,109.65l2418.97,29.89c59.4,.89,108.1-46.9,108.32-106.31l4.05-1174.75c.16-42.48-33.68-77.29-76.15-78.32l-2476.58-50.03c-47.5-1.16-86.63,37.03-86.63,84.54Z"/>
      <path class="cls-6" d="M3189.25,2401.79h-.06l-2653.52-45.21c-1.88-.03-3.38-1.58-3.35-3.46,.04-1.88,1.75-3.38,3.46-3.35l2653.52,45.21c1.88,.03,3.38,1.58,3.35,3.46-.03,1.86-1.55,3.35-3.4,3.35Z"/>
      <path class="cls-6" d="M1888.67,2457.01c-17.1,0-31.01-13.91-31.01-31.01s13.91-31.01,31.01-31.01,31.01,13.91,31.01,31.01-13.91,31.01-31.01,31.01Zm0-55.22c-13.35,0-24.21,10.86-24.21,24.21s10.86,24.21,24.21,24.21,24.21-10.86,24.21-24.21-10.86-24.21-24.21-24.21Z"/>
    </g>
    <g>
      <path class="cls-2" d="M2436.99,3032.75H1405.6c-28.02,0-49.06-19.95-43.64-41.37l13.23-52.34c3.98-15.74,21.3-27.3,41.86-27.94l994.29-31.03c21.49-.67,40.51,10.74,45.2,27.09l23.86,83.37c6.2,21.66-14.94,42.22-43.42,42.22Z"/>
      <path class="cls-4" d="M1960.82,2925.31c-1.86,0-3.38-1.49-3.4-3.35-.03-1.88,1.48-3.43,3.35-3.45l42.61-.62h.05c1.86,0,3.38,1.49,3.4,3.35,.03,1.88-1.48,3.43-3.35,3.45l-42.61,.62h-.05Z"/>
      <path class="cls-4" d="M1400.14,3003.93c-.18,0-.36-.01-.54-.04-1.86-.3-3.12-2.04-2.83-3.9l6.08-38.07c3.27-20.48,20.69-35.56,41.42-35.87l451.91-6.61h.05c1.86,0,3.38,1.49,3.4,3.35,.03,1.88-1.48,3.43-3.35,3.45l-451.91,6.61c-17.42,.26-32.05,12.93-34.8,30.13l-6.08,38.07c-.27,1.68-1.71,2.87-3.36,2.87Z"/>
    </g>
  </g>
  <g>
    <g>
      <path class="cls-22" d="M2692.73,523.15c15.42,.73,30.98,2.14,46.25,4.19,2.09,.28,4.14,.1,6.04-.48,5.22-1.57,9.3-6.07,10.07-11.82,1.06-7.85-4.45-15.07-12.3-16.12-16.08-2.16-32.47-3.64-48.71-4.41-7.91-.37-14.63,5.73-15,13.64-.38,7.91,5.73,14.62,13.64,15Z"/>
      <path class="cls-22" d="M2291.06,653.21c-5.48-5.72-14.55-5.91-20.27-.43-11.72,11.23-23.1,23.11-33.82,35.29-5.23,5.95-4.65,15,1.3,20.23,3.86,3.4,9.04,4.34,13.62,2.96,2.48-.75,4.78-2.17,6.61-4.25,10.18-11.58,20.99-22.86,32.13-33.53,5.72-5.48,5.91-14.56,.43-20.27Z"/>
      <path class="cls-22" d="M2115.25,977.21c-7.84-1.06-15.07,4.43-16.14,12.27-2.19,16.09-3.7,32.47-4.5,48.68-.39,7.91,5.71,14.63,13.61,15.03,1.69,.08,3.32-.13,4.85-.59,5.64-1.7,9.87-6.8,10.18-13.03,.76-15.4,2.2-30.95,4.27-46.23,1.07-7.84-4.43-15.07-12.27-16.14Z"/>
      <path class="cls-22" d="M2208.64,747.08c-6.61-4.36-15.51-2.54-19.86,4.08-8.95,13.57-17.42,27.67-25.16,41.9-3.79,6.95-1.22,15.66,5.74,19.45,3.5,1.91,7.45,2.2,10.99,1.14,3.48-1.05,6.57-3.42,8.45-6.87,7.36-13.52,15.41-26.92,23.92-39.82,4.36-6.61,2.53-15.5-4.08-19.86Z"/>
      <path class="cls-22" d="M2571.28,531.09c15.2-2.72,30.69-4.82,46.04-6.24,.98-.09,1.92-.28,2.83-.56,6.39-1.93,10.76-8.14,10.12-15.04-.73-7.88-7.71-13.68-15.6-12.96-16.15,1.5-32.45,3.71-48.44,6.57-7.81,1.36-12.98,8.85-11.59,16.64,1.4,7.79,8.84,12.98,16.64,11.59Z"/>
      <path class="cls-22" d="M2149.03,856.89c-7.41-2.78-15.68,.96-18.47,8.36-5.72,15.19-10.86,30.82-15.27,46.45-2.15,7.62,2.29,15.54,9.91,17.69,2.73,.77,5.49,.7,8.02-.07,4.53-1.37,8.29-4.95,9.67-9.84,4.18-14.86,9.06-29.7,14.5-44.13,2.79-7.41-.95-15.68-8.36-18.47Z"/>
      <path class="cls-22" d="M2109.23,1101.99c-7.91,.74-13.7,7.69-12.99,15.58,1.46,16.12,3.64,32.42,6.47,48.43,1.38,7.8,8.82,13,16.62,11.62,.56-.1,1.12-.23,1.66-.39,6.86-2.07,11.24-8.99,9.96-16.22-2.7-15.22-4.77-30.7-6.15-46.02-.71-7.88-7.68-13.7-15.57-12.99Z"/>
      <path class="cls-22" d="M2344.28,627.34c1.48-.45,2.92-1.15,4.25-2.1,12.5-9.02,25.54-17.6,38.77-25.51,6.8-4.07,9.01-12.87,4.95-19.67-4.07-6.8-12.85-8.97-19.67-4.94-13.93,8.33-27.66,17.37-40.82,26.87-6.42,4.63-7.87,13.59-3.24,20.02,3.67,5.09,10.07,7.06,15.77,5.34Z"/>
      <path class="cls-22" d="M2453.11,566.17c.49-.15,.97-.32,1.45-.52,14.19-5.99,28.83-11.44,43.51-16.21,7.53-2.44,11.66-10.53,9.21-18.06-2.41-7.43-10.32-11.55-17.77-9.3-.1,.03-.2,.06-.29,.09-15.46,5.01-30.87,10.76-45.8,17.06-7.3,3.08-10.71,11.49-7.64,18.79,2.87,6.81,10.41,10.24,17.33,8.16Z"/>
      <path class="cls-22" d="M2149.08,1234.04c-2.4-7.45-10.38-11.76-17.84-9.52-.09,.03-.18,.05-.27,.08-7.58,2.29-11.62,10.7-9.18,18.24,5,15.49,10.84,31.35,17.11,46.29,2.86,6.83,10.37,10.15,17.31,8.06,.48-.14,.88-.54,1.35-.74,7.3-3.06,10.75-11.43,7.69-18.73-5.95-14.19-11.42-28.97-16.16-43.68Z"/>
      <path class="cls-22" d="M2852.68,539.95c2.45-7.52-1.67-15.62-9.2-18.07-7.4-2.41-14.96-4.7-22.49-6.82-7.62-2.16-15.54,2.3-17.68,9.92-2.14,7.62,2.3,15.54,9.92,17.68,7.16,2.02,14.35,4.19,21.38,6.48,2.89,.94,5.86,.91,8.56,.1,4.34-1.31,8-4.65,9.51-9.3Z"/>
    </g>
    <path class="cls-22" d="M2613.49,1608.15c-15.11-1.48-30.33-3.63-45.24-6.38-7.8-1.44-15.26,3.71-16.7,11.5-1.44,7.79,3.71,15.26,11.5,16.7,15.71,2.9,31.74,5.16,47.64,6.72,1.92,.19,3.79,0,5.54-.53,5.4-1.63,9.55-6.38,10.13-12.33,.77-7.88-4.99-14.9-12.87-15.67Z"/>
    <g>
      <path class="cls-22" d="M3205.03,853.77c3.12,6.42,10.4,9.47,17.02,7.47,.72-.22,1.44-.49,2.14-.83,7.12-3.46,10.1-12.03,6.64-19.16-3.4-7-7-14.05-10.71-20.95-3.75-6.97-12.41-9.61-19.42-5.84-6.97,3.75-9.59,12.44-5.84,19.42,3.52,6.55,6.94,13.24,10.17,19.89Z"/>
      <path class="cls-22" d="M3270.18,1024.2c-7.86,.77-13.65,7.77-12.88,15.66,1.47,15.12,2.31,30.46,2.5,45.61,.1,7.91,6.6,14.25,14.51,14.15,1.38-.02,2.71-.23,3.97-.6,5.96-1.8,10.27-7.37,10.19-13.91-.2-15.95-1.08-32.1-2.63-48.02-.77-7.88-7.78-13.65-15.66-12.88Z"/>
      <path class="cls-22" d="M3271.64,1147.16c-7.84-.99-15.02,4.58-16.01,12.44-1.89,15.04-4.45,30.2-7.62,45.06-1.65,7.74,3.29,15.36,11.04,17,2.45,.52,4.88,.38,7.11-.29,4.84-1.46,8.77-5.45,9.9-10.75,3.33-15.64,6.03-31.6,8.02-47.45,.99-7.86-4.58-15.03-12.44-16.01Z"/>
      <path class="cls-22" d="M3174.85,1383.55c-8.13,12.8-16.92,25.42-26.1,37.51-4.79,6.31-3.56,15.3,2.75,20.09,3.8,2.88,8.58,3.58,12.82,2.3,2.8-.84,5.36-2.55,7.26-5.05,9.67-12.73,18.91-26.01,27.47-39.48,4.24-6.69,2.27-15.54-4.41-19.79-6.69-4.25-15.55-2.28-19.79,4.41Z"/>
      <path class="cls-22" d="M3006.52,1551.68c-12.84,8.12-26.17,15.77-39.61,22.75-7.03,3.65-9.77,12.31-6.12,19.34,3.23,6.22,10.38,9.07,16.85,7.12,.84-.25,1.67-.59,2.48-1.01,14.15-7.35,28.19-15.41,41.71-23.96,6.69-4.23,8.69-13.09,4.46-19.78-4.23-6.69-13.08-8.68-19.78-4.46Z"/>
      <path class="cls-22" d="M3099.96,1476.96c-10.75,10.74-22.07,21.14-33.64,30.9-6.05,5.11-6.82,14.15-1.71,20.21,3.8,4.51,9.79,6.08,15.1,4.48,1.82-.55,3.56-1.47,5.1-2.77,12.18-10.28,24.1-21.23,35.41-32.54,5.6-5.6,5.6-14.67,.01-20.27-5.6-5.61-14.68-5.6-20.28,0Z"/>
      <path class="cls-22" d="M3245.99,1267.42c-7.46-2.69-15.67,1.17-18.36,8.61-5.15,14.26-10.97,28.49-17.31,42.3-3.3,7.2-.14,15.71,7.05,19.01,3.31,1.52,6.89,1.67,10.11,.7,3.8-1.15,7.11-3.86,8.9-7.75,6.67-14.54,12.8-29.52,18.22-44.52,2.69-7.45-1.17-15.66-8.61-18.36Z"/>
      <path class="cls-22" d="M2782.31,1631.7c-15.09,1.87-30.41,3.13-45.56,3.73-7.9,.29-14.07,6.98-13.76,14.9,.31,7.91,6.98,14.07,14.89,13.75,15.95-.63,32.08-1.96,47.95-3.93,.82-.1,1.62-.27,2.39-.5,6.57-1.98,10.95-8.46,10.07-15.49-.98-7.85-8.14-13.43-15.99-12.46Z"/>
      <path class="cls-22" d="M2898.87,1604.04c-14.2,5.06-28.84,9.58-43.67,13.52-7.62,1.99-12.21,9.88-10.18,17.54,2.03,7.65,9.88,12.21,17.54,10.18,6.43-1.71,12.8-3.51,19.11-5.41,9.01-2.72,18.04-5.68,26.82-8.81,7.46-2.65,11.36-10.85,8.7-18.32-2.66-7.46-10.85-11.34-18.31-8.7Z"/>
      <path class="cls-22" d="M3260.06,913.73c-2.45-7.53-10.5-11.82-18.07-9.19-7.53,2.45-11.65,10.54-9.2,18.07,1.24,3.82,2.45,7.67,3.62,11.53,3.22,10.68,6.16,21.61,8.73,32.48,1.82,7.7,9.54,12.48,17.25,10.65,.29-.07,.58-.14,.86-.23,7.2-2.17,11.55-9.6,9.8-17.02-2.7-11.44-5.79-22.94-9.18-34.17-1.23-4.07-2.5-8.11-3.8-12.13Z"/>
    </g>
    <path class="cls-22" d="M2496.01,1583.22c-6.99-2.32-14.08-4.83-21.05-7.46-7.41-2.8-15.68,.94-18.48,8.35-2.8,7.41,.94,15.68,8.35,18.48,7.34,2.77,14.79,5.41,22.16,7.85,2.91,.96,5.9,.94,8.63,.12,4.32-1.3,7.95-4.62,9.48-9.22,2.49-7.52-1.59-15.63-9.11-18.11Z"/>
    <g>
      <path class="cls-22" d="M3136.4,947.62l-80.71-11.38c-15.44-34.38-36.06-65.48-60.63-92.66l-104.17,20.02-79.61,86.32,70.28,152.17-177.87-5.94-103.97,77.41,14.11,136.61-109.33-21.2-37.22,36.91-21,78.54c-.74,2.76,.35,5.69,2.73,7.29l81.1,54.7c2.37,1.6,5.5,1.52,7.78-.2l65.16-49.05c35.6,13.54,73.62,21.49,112.78,22.99l40.78,70.57c1.43,2.48,4.28,3.77,7.08,3.22l96.03-18.67c2.81-.55,4.96-2.81,5.36-5.64l11.38-80.71c35.76-16.06,68.02-37.68,95.96-63.56l78.79,21.07c2.76,.74,5.69-.36,7.28-2.73l54.7-81.1c1.6-2.37,1.52-5.5-.2-7.78l-49.05-65.15c13.54-35.6,21.49-73.62,22.99-112.78l70.57-40.79c2.48-1.43,3.77-4.27,3.22-7.08l-18.67-96.03c-.54-2.81-2.81-4.96-5.64-5.36Z"/>
      <path class="cls-39" d="M2761.8,1151.19c-34.51,16.23-75.14,3.86-95.3-27.32l-18.41,13.73c23.92,35.77,68.75,51.95,109.98,39.52,4.55-1.37,9.06-3.09,13.48-5.17,29.85-14.03,49.35-41.25,54.87-71.46l-23.28-.82c-5,21.84-19.55,41.28-41.35,51.52Z"/>
      <path class="cls-39" d="M2962.13,1010.84c-15.38-50.96-46.91-94.98-90.62-126.23l-7.84,8.5c42.24,29.82,72.69,72.07,87.48,121.07,2.27,7.52,4.17,15.2,5.69,23.01,8.66,44.56,3.79,88.66-11.74,128.06-27.92,70.82-90.28,126.42-170.4,141.98-16.13,3.14-32.57,4.56-48.86,4.23-3.16-.06-5.79,2.45-5.85,5.61-.01,.62,.07,1.22,.24,1.78,.7,2.31,2.83,4.02,5.37,4.07,.97,.02,1.94-.5,2.91-.5,.5,0,1-.53,1.5-.53h.53c12.88,0,25.81-.51,38.6-2.57,2.59-.42,5.18-.61,7.76-1.11,8.19-1.59,16.24-3.45,24.12-5.83,53.13-16.02,98.75-49.48,130.19-96.11,36.11-53.54,49.22-117.91,36.89-181.31-1.6-8.2-3.59-16.23-5.97-24.12Z"/>
    </g>
    <g>
      <path class="cls-22" d="M2530.51,1248.08l-13.45-130.16,103.97-77.41,173.3,5.79c2.1,.07,3.54-2.1,2.66-4l-68.36-148.02,79.61-86.32,104.17-20.02c-.99-1.09-1.93-2.22-2.93-3.3l21.07-78.79c.74-2.76-.36-5.69-2.72-7.28l-81.1-54.7c-2.37-1.6-5.49-1.52-7.78,.2l-65.16,49.05c-35.6-13.54-73.62-21.49-112.78-22.99l-40.79-70.57c-1.43-2.48-4.27-3.77-7.08-3.22l-96.03,18.67c-2.81,.55-4.96,2.81-5.36,5.64l-11.38,80.71c-35.76,16.06-68.02,37.67-95.96,63.56l-78.79-21.07c-2.76-.74-5.69,.36-7.29,2.73l-54.7,81.1c-1.6,2.37-1.52,5.49,.2,7.78l49.05,65.16c-13.54,35.6-21.49,73.62-22.98,112.78l-70.57,40.79c-2.47,1.43-3.77,4.27-3.22,7.08l18.67,96.03c.55,2.81,2.81,4.96,5.64,5.36l80.71,11.38c16.06,35.76,37.68,68.02,63.56,95.96l-.07,.25,37.22-36.91,102.97,19.97c3.17,.61,6.03-2,5.7-5.21Z"/>
      <path class="cls-39" d="M2583.85,1068.23c-1.82-2.82-3.54-5.73-5-8.86-17.68-37.62-1.45-82.62,36.17-100.3,3.41-1.6,6.9-2.93,10.44-4,15.39-4.64,31.8-4.23,47.2,1.32,18.95,6.83,34.1,20.63,42.66,38.86,7.43,15.82,8.8,32.93,5.18,48.78l23.28,.82c3.56-19.45,1.34-40.14-7.7-59.36-11.17-23.77-30.93-41.77-55.64-50.68-24.7-8.91-51.4-7.67-75.18,3.51-49.07,23.06-70.24,81.74-47.18,130.82,2.14,4.54,4.65,8.78,7.36,12.83l18.41-13.73Z"/>
      <path class="cls-39" d="M2783.3,825.05c-53.54-36.12-117.94-49.22-181.34-36.9-130.83,25.44-216.65,152.61-191.21,283.49,1.57,8.07,3.54,16.02,5.9,23.84,10.22,33.88,27.76,65.15,51.43,91.49,2.12,2.37,5.74,2.55,8.1,.43,1.71-1.53,2.28-3.86,1.66-5.92-.23-.78-.64-1.53-1.22-2.18-22.55-25.1-39.25-54.88-48.98-87.15-2.25-7.45-4.13-15.03-5.62-22.72-24.23-124.66,57.42-245.78,182.14-270.03,60.39-11.74,121.74,.74,172.74,35.14,1.4,.94,2.75,1.94,4.13,2.91l7.84-8.5c-1.84-1.32-3.67-2.65-5.56-3.92Z"/>
    </g>
  </g>
  <g>
    <g>
      <circle class="cls-9" cx="888.84" cy="819.56" r="282.01" transform="translate(-319.18 868.55) rotate(-45)"/>
      <circle class="cls-18" cx="888.84" cy="819.56" r="272.63" transform="translate(-319.18 868.55) rotate(-45)"/>
      <path class="cls-5" d="M1113.65,709.19c.44,0,.88-.1,1.3-.31,1.42-.72,1.99-2.45,1.27-3.87-43.59-86.36-130.71-140-227.38-140-15.42,0-30.87,1.39-45.92,4.14-1.57,.28-2.6,1.78-2.32,3.35,.28,1.57,1.78,2.61,3.35,2.31,14.71-2.68,29.81-4.04,44.89-4.04,94.48,0,179.63,52.43,222.24,136.83,.51,1,1.52,1.58,2.57,1.58Z"/>
      <circle class="cls-9" cx="882.9" cy="825.5" r="230.75" transform="translate(-325.12 866.09) rotate(-45)"/>
    </g>
    <g>
      <path class="cls-31" d="M897.18,870.37l-26.11-.62c-7.28-.17-13.3-6.4-13.68-13.72l-9.56-183.98c-.2-3.79,1.17-6.92,3.77-9.48,2.6-2.56,6.2-3.39,9.97-3.13l44.97,3.13c3.69,.26,7.2,1.48,9.73,4.36,2.53,2.88,3.85,6.33,3.66,10.03l-9.3,180.62c-.37,7.22-6.27,12.95-13.45,12.78Z"/>
      <path class="cls-30" d="M856.88,915.31c6.52-6.23,15.69-9.24,27.49-9.05,12.16,.19,21.38,3.4,27.69,9.61,6.3,6.19,9.43,15.23,9.43,27.14s-3.21,20.37-9.64,26.67c-6.45,6.32-15.6,9.48-27.48,9.48s-20.79-3.27-27.38-9.81c-6.61-6.57-9.92-15.55-9.92-26.93s3.28-20.85,9.81-27.1Z"/>
    </g>
  </g>
  <g>
    <g>
      <path class="cls-1" d="M1918.28,696.72l-727.98,1223.18c-15.98,26.85,4.91,59.71,38.14,59.98l1443.08,11.88c33.35,.27,54.87-32.45,39.16-59.57L1995.58,697.13c-16.44-28.39-60.51-28.63-77.3-.41Z"/>
      <path class="cls-25" d="M1921.96,769.79l-661.15,1110.89c-14.52,24.39,4.46,54.23,34.64,54.48l1310.6,10.79c30.29,.25,49.83-29.47,35.57-54.1L1992.16,770.16c-14.93-25.79-54.95-26-70.21-.37Z"/>
    </g>
    <g>
      <g>
        <path class="cls-11" d="M1808.31,1531l-32.3,.42v57.68l-55.74,.93v-57.88l-116.43,1.51v-41.38l119.58-181.54,52.59,.06v174.94l32.3-.33v45.59Zm-88.04-44.7v-47.38c0-7.9,.3-19.36,.93-34.39,.62-15.03,1.11-23.75,1.48-26.18h-1.48c-4.57,10.47-10.07,20.68-16.5,30.65l-49.9,77.95,65.47-.66Z"/>
        <path class="cls-38" d="M2021.34,1448.04c0,47.84-7.46,83.36-22.39,106.57-14.97,23.26-38.07,35.17-69.38,35.7-30.47,.52-53.53-11.07-69.1-34.8-15.6-23.78-23.41-59.13-23.41-106.03s7.6-85,22.78-108.2c15.15-23.15,38.42-34.69,69.74-34.65,30.35,.04,53.22,12.09,68.67,36.12,15.42,23.98,23.11,59.06,23.11,105.28Zm-128.47,1c0,33.88,2.81,58.13,8.42,72.73,5.61,14.59,15.03,21.79,28.27,21.6,12.97-.18,22.33-7.71,28.08-22.59,5.75-14.86,8.62-38.97,8.62-72.32s-2.9-57.94-8.71-72.65c-5.81-14.72-15.14-22.08-27.99-22.06-13.12,.02-22.51,7.43-28.18,22.23-5.67,14.82-8.51,39.17-8.51,73.05Z"/>
        <path class="cls-19" d="M2242.86,1525.35l-30.53,.4v56.07l-52.67,.88v-56.27l-110,1.43v-40.21l112.97-176.44,49.7,.05v170.07l30.53-.31v44.32Zm-83.2-43.48v-46.06c0-7.67,.29-18.82,.87-33.43,.58-14.61,1.05-23.09,1.4-25.44h-1.4c-4.32,10.17-9.51,20.1-15.59,29.8l-47.14,75.76,61.85-.62Z"/>
      </g>
      <g>
        <path class="cls-27" d="M1682.55,1833.09l-85.99,2.76v-153.62l85.99-1.92v26.54l-54.22,1.3v33.66l50.46-1.32v26.55l-50.46,1.41v39.54l54.22-1.65v26.75Z"/>
        <path class="cls-8" d="M1749.93,1772.55v58.38l-31.28,1v-152.44l42.95-.96c19.95-.45,34.68,2.98,44.22,10.26,9.52,7.28,14.28,18.54,14.28,33.8,0,8.91-2.36,16.89-7.09,23.96-4.73,7.07-11.43,12.7-20.11,16.88,22,33.45,36.3,55,42.95,64.73l-34.34,1.1-34.99-57.19-16.6,.47Zm0-26.22l10.06-.27c9.85-.26,17.11-2.15,21.79-5.67,4.68-3.52,7.02-8.9,7.02-16.17s-2.39-12.26-7.17-15.19c-4.78-2.93-12.19-4.28-22.25-4.04l-9.46,.23v41.11Z"/>
        <path class="cls-24" d="M1889.97,1768.58v57.86l-30.73,.98v-151.07l42.19-.94c19.6-.44,34.06,2.96,43.43,10.18,9.36,7.21,14.03,18.38,14.03,33.51,0,8.83-2.32,16.74-6.96,23.75-4.65,7.01-11.23,12.58-19.75,16.73,21.61,33.16,35.66,54.52,42.19,64.16l-33.73,1.08-34.37-56.69-16.3,.46Zm0-25.99l9.88-.26c9.67-.26,16.81-2.13,21.41-5.61,4.6-3.48,6.89-8.82,6.89-16.03s-2.35-12.15-7.04-15.05c-4.7-2.91-11.98-4.24-21.85-4.01l-9.29,.22v40.74Z"/>
        <path class="cls-41" d="M2125.73,1744.43c0,24.58-5.76,43.64-17.29,57.21-11.55,13.59-28.13,20.73-49.78,21.43-21.71,.7-38.42-5.41-50.1-18.34-11.7-12.95-17.55-31.9-17.55-56.83s5.87-44.12,17.6-57.54c11.71-13.4,28.47-20.33,50.25-20.82,21.71-.48,38.28,5.73,49.73,18.62,11.43,12.87,17.14,31.63,17.14,56.27Zm-103.06,2.8c0,16.7,3.02,29.19,9.04,37.46,6.02,8.27,15,12.21,26.95,11.85,23.9-.73,35.82-17.81,35.82-51.26s-11.86-49.99-35.63-49.43c-11.94,.29-20.97,4.74-27.05,13.37-6.09,8.64-9.14,21.31-9.14,38.01Z"/>
        <path class="cls-36" d="M2189.19,1760.1v56.74l-29.55,.95v-148.16l40.58-.91c18.85-.42,32.77,2.92,41.78,10,9,7.08,13.5,18.03,13.5,32.87,0,8.66-2.23,16.42-6.7,23.29-4.47,6.87-10.8,12.34-19,16.4,20.79,32.53,34.31,53.5,40.59,62.96l-32.45,1.04-33.07-55.63-15.68,.44Zm0-25.49l9.51-.25c9.31-.25,16.17-2.08,20.59-5.5,4.42-3.41,6.63-8.65,6.63-15.72s-2.26-11.92-6.77-14.77c-4.52-2.85-11.52-4.17-21.02-3.94l-8.94,.22v39.95Z"/>
      </g>
    </g>
  </g>
  <g>
    <path class="cls-15" d="M1056.73,3113.42s-7.24,41.02-10.8,81.62c-1.39,15.87,10.84,29.65,26.76,30.31,54.07,2.25,169.72,6.63,211.22,4.78,6.24-.28,10.32-6.67,8.01-12.47h0c-1.93-4.86-5.67-8.79-10.42-10.98l-191.04-87.8-33.73-5.45Z"/>
    <path class="cls-35" d="M1050.79,3089.32l5.82,49.06s33.47,15.58,56.32-1.96l-13.86-54.67-48.28,7.58Z"/>
    <path class="cls-20" d="M1055.17,2166.98c-2.51,12.81-13.5,639.33,53.47,920.1,1.09,4.58-1.23,9.3-5.59,11.08-10.27,4.2-30.41,10.27-54.54,11.08-7.47,.25-14.17-4.61-16.28-11.78-19.14-65.14-110.88-391.52-122.84-703.3-13.37-348.38,0-11.86,0-11.86l7.84-215.35,137.94,.03Z"/>
    <path class="cls-32" d="M836.97,3134.82s-11.53,20.71-22.7,75.73c-2.02,9.94,4.93,19.45,15.02,20.44,17.85,1.76,45.34,4.01,67.35,3.86,10.15-.07,18.07-8.91,16.85-18.98-2.44-20.08-10.04-53.03-33.51-78.71l-43.01-2.33Z"/>
    <path class="cls-40" d="M826.84,3071.71l13.6,74.19s13.45,10,40.05,2.75l-6.49-79.83-47.16,2.88Z"/>
    <path class="cls-34" d="M790.1,2186.2c-54.77,330.56,11.88,817,34.36,912.21,1.38,5.83,6.08,10.29,11.99,11.27,10.03,1.66,26.55,3.02,42.84-1.71,5.61-1.63,9.55-6.69,9.78-12.53,3.02-76.97-2.41-549.52,48.62-736.27,2.59-9.46,8.37-17.72,16.36-23.4l99.06-70.42,7.59-113.83-270.61,34.68Z"/>
    <g>
      <g>
        <g>
          <g>
            <path class="cls-28" d="M1277.75,1715.01c-8.33,59.22-17.12,72.82-23.94,73.18-21.74,1.12-17.36-132.39-96.86-199.92-50.22-42.66-118.81-46.17-172.62-41.19,25.11,90.05,50.22,180.1,75.33,270.15,10.96,26.9,58.77,135.72,166.93,168.75,22.02,6.72,54.79,16.73,85.28,3.63,60.17-25.86,88.39-131.84,61.48-264.55-12.65-4.7-30.15-9.7-95.6-10.04Z"/>
            <path class="cls-26" d="M1258.58,1484.08l9.95,56.28c15.99,68.83,17.51,126.21,9.21,174.65,13.74,.57,28.16,1.54,43.19,3.02,18.53,1.83,36.03,4.24,52.41,7.02-8.65-70-55.23-186.25-55.23-186.25-28.09-40.55-31.44-14.16-59.54-54.71Z"/>
          </g>
          <path class="cls-13" d="M1372.37,1365.5c-11.27-.3-22.07,4.55-29.35,13.17l-71,84.13s-12.92-2.64-14.13-27.39c-1.21-24.75-27.5-27.73-27.5-27.73,0,0,3.79,34.51,11.01,85.59,4.13,29.21,21.4,50.53,35.43,63.45l41.07-14.14c37.68-53.86,61.07-113.22,74.07-176.58l-19.59-.51Z"/>
        </g>
        <path class="cls-7" d="M703.2,1594.38c4.73-1.24,37.07-34.65,41.93-35.58,79.71-15.19,278.66-68.77,411.82,29.46,.33,2.84,.54,5.1,.67,6.98,1.29,1.75,3.06,4.69,5.49,9.4,12.57,24.37,27.66,48.05,44.94,70.18-3.8,3.77-6.96,8.2-9.26,13.13-32,68.54-153.29,342.26-131.97,509.65,1.1,8.64-4.78,16.61-13.41,17.8-47.08,6.51-187.3,22.39-259.74-7.52-4.22-1.74-6.91-5.88-6.85-10.44,.48-33.58-.94-179.34-54.38-355.04-1.99-6.55-3.62-13.2-4.91-19.92-.66,1.35-1.28,2.69-1.91,4.03l-22.41-232.14Z"/>
        <path class="cls-23" d="M824.84,1543.61c-148.64,10.87-179.71,95.81-282.43,43.88l18.19,159.07c38.09,42.07,95.6,70.72,168.07,81.46l96.17-284.4Z"/>
      </g>
      <g>
        <path class="cls-29" d="M926.4,1399.75c-25.47,50.77-36.1,102.48-39.29,150.63,5.48,2.04,78.58,52.75,127.51,3.67-10.46-33.69-8.73-84.41-6.07-136.43l-82.15-17.87Z"/>
        <g>
          <path class="cls-42" d="M1059.02,1266.27c1.4,2.27,37.93,174.55,37.93,174.55l-98.82,18.77-58.89-158.15s96.33-73.11,119.77-35.17Z"/>
          <path class="cls-14" d="M976.97,1315.5c-2.64,3.62-3.47,8.23-2.24,12.54l24.12,84.44c.37,1.28,.89,2.49,1.59,3.62,3.9,6.23,17.9,25.06,36.77,9.6,16.09-13.18,31.05-25.07,44.47-28.03,7.83-1.73,15.53,3.39,17.16,11.25,3.37,16.18,9.5,48.96,10.86,78.85,.34,7.49-5.21,13.95-12.65,14.87-19.64,2.43-58.13,6.01-90.35,1.97-5.29-.66-9.77-4.17-11.69-9.15-8.46-21.9-32.4-83.18-41.83-99.44-8.75-15.1-32.01-16.53-42.71-16.34-4.06,.07-7.94-1.53-10.76-4.45-8.45-8.77-21.99-28.61,.97-49.89,5.71-5.29,5.94-14.32,.77-20.13-9.27-10.42-17.75-27.59-.08-46.97,17.89-19.62,39.47-16.02,53.32-10.43,6.13,2.48,13.46,.88,17.47-4.37,1.79-2.34,4.52-4,8.72-3.74,7.92,.49,14.69-5.05,15.23-12.97,.93-13.57,7.33-29.8,30.94-35.6,43.32-10.63,67.31,32.06,68.06,62.86,.75,30.8-46.87,39.66-74.32,35.9-20.17-2.76-36.57,15.66-43.85,25.63Z"/>
          <path class="cls-33" d="M968,1428.05s-9.19-54.54-31.16-58.5c-21.97-3.96-44.62,12.91-24.45,44.11,25.09,38.81,55.61,14.39,55.61,14.39Z"/>
        </g>
      </g>
      <g>
        <path class="cls-21" d="M931.77,1231.83c3.83-.16,7.99,.21,12.58,1.18,10.45,2.21,24.36,7.58,20.74,17.63-5.44,15.09-33.68,.99-48.71,25.32-13.25,21.43-2.4,44.71-6.46,67.81-1.97,11.24-9.19,27.92-19.23,34.49-4.49,2.93-39.94,8.55-41.88,2.26,0,0-9.85-31.97-9.85-31.98-8.86-28.76,25.19-76.69,42.75-96.07,13.57-14.97,31.96-19.88,50.07-20.62Z"/>
        <g>
          <path class="cls-17" d="M898.16,1347.27l-33.91,28.23c-65.03,27.66-112.27,60.25-146.51,95.51-12.4-23.32-32.47-50.28-64.46-71.31,65.55-32.29,114.34-45.7,114.34-45.7,132.29-53.2,130.54-6.73,130.54-6.73Z"/>
          <path class="cls-3" d="M717.74,1471c-106.91,110.09-75.67,54.15-76.52,147.99-.32,34.99-30.68,168.58-30.68,168.58-326.95-141.24-54.1-334.04,42.74-387.88,31.99,21.03,52.06,47.99,64.46,71.31Z"/>
        </g>
      </g>
    </g>
  </g>
</svg>